<svg height="512pt" viewBox="0 0 512 512" width="512pt" xmlns="http://www.w3.org/2000/svg"><path d="m512 256c0 141.386719-114.613281 256-256 256s-256-114.613281-256-256 114.613281-256 256-256 256 114.613281 256 256zm0 0" fill="#ffd400"/><path d="m437.882812 192.175781-363.199218 128.21875 191.390625 191.390625c133.367187-5.164062 240.542969-112.339844 245.710937-245.707031zm0 0" fill="#fdba12"/><path d="m373.332031 346.777344h-234.664062c-50.136719 0-90.78125-40.640625-90.78125-90.777344s40.644531-90.777344 90.78125-90.777344h234.664062c50.136719 0 90.78125 40.640625 90.78125 90.777344s-40.644531 90.777344-90.78125 90.777344zm0 0" fill="#4a7aff"/><path d="m373.332031 165.222656h-118.386719v181.554688h118.386719c50.136719 0 90.78125-40.640625 90.78125-90.777344s-40.644531-90.777344-90.78125-90.777344zm0 0" fill="#0053bf"/><g fill="#fff"><path d="m86.292969 228.640625h41.382812v11.382813h-24.570312v9.25h20.984375v10.699218h-20.984375v21.644532h-16.8125zm0 0"/><path d="m134.585938 255.164062c0-8.648437 2.460937-15.382812 7.386718-20.199218 4.925782-4.816406 11.789063-7.226563 20.582032-7.226563 9.015624 0 15.960937 2.367188 20.839843 7.101563 4.875 4.734375 7.316407 11.363281 7.316407 19.890625 0 6.195312-1.066407 11.269531-3.195313 15.234375-2.132813 3.960937-5.210937 7.046875-9.238281 9.25s-9.046875 3.308594-15.054688 3.308594c-6.109375 0-11.167968-.953126-15.167968-2.855469-4.003907-1.902344-7.25-4.914063-9.738282-9.035157-2.488281-4.121093-3.730468-9.277343-3.730468-15.46875zm16.734374.074219c0 5.347657 1.019532 9.191407 3.050782 11.527344s4.796875 3.503906 8.292968 3.503906c3.597657 0 6.382813-1.144531 8.351563-3.433593 1.96875-2.285157 2.957031-6.394532 2.957031-12.320313 0-4.988281-1.03125-8.632813-3.085937-10.933594-2.058594-2.300781-4.847657-3.449219-8.371094-3.449219-3.375 0-6.082031 1.167969-8.128906 3.503907-2.042969 2.339843-3.066407 6.207031-3.066407 11.601562zm0 0"/><path d="m199.726562 228.640625h16.738282v39.929687h26.121094v13.046876h-42.859376zm0 0"/><path d="m250.195312 228.640625h16.738282v39.929687h26.125v13.046876h-42.863282zm0 0"/></g><path d="m293.058594 268.570312h-26.125v-39.929687h-11.988282v52.976563h38.113282zm0 0" fill="#dce1eb"/><path d="m297.269531 255.164062c0-8.648437 2.464844-15.382812 7.390625-20.199218 4.925782-4.816406 11.785156-7.226563 20.582032-7.226563 9.015624 0 15.960937 2.367188 20.835937 7.101563 4.878906 4.734375 7.316406 11.363281 7.316406 19.890625 0 6.195312-1.066406 11.269531-3.195312 15.234375-2.128907 3.960937-5.207031 7.046875-9.234375 9.25s-9.050782 3.308594-15.058594 3.308594c-6.109375 0-11.164062-.953126-15.167969-2.855469-4.003906-1.902344-7.246093-4.914063-9.734375-9.035157-2.492187-4.121093-3.734375-9.277343-3.734375-15.46875zm16.738281.074219c0 5.347657 1.015626 9.191407 3.046876 11.527344 2.035156 2.335937 4.796874 3.503906 8.296874 3.503906 3.59375 0 6.378907-1.144531 8.347657-3.433593 1.972656-2.285157 2.957031-6.394532 2.957031-12.320313 0-4.988281-1.027344-8.632813-3.085938-10.933594-2.054687-2.300781-4.84375-3.449219-8.367187-3.449219-3.375 0-6.085937 1.167969-8.128906 3.503907-2.042969 2.339843-3.066407 6.207031-3.066407 11.601562zm0 0" fill="#dce1eb"/><path d="m355.539062 228.640625h15.898438l5.722656 29.660156 8.375-29.660156h15.84375l8.394532 29.617187 5.730468-29.617187h15.816406l-11.941406 52.976563h-16.414062l-9.5-33.355469-9.460938 33.355469h-16.414062zm0 0" fill="#dce1eb"/></svg>