<svg id="Layer_2" enable-background="new 0 0 64 64" height="512" viewBox="0 0 64 64" width="512" xmlns="http://www.w3.org/2000/svg"><path d="m58.834 19.902h-8.598l1.791-11.792c.166-1.088-.6-1.977-1.699-1.977h-7.121c-1.1 0-2.135.89-2.301 1.977l-1.791 11.792h-7.234l1.791-11.792c.166-1.088-.6-1.977-1.7-1.977h-8.817c-1.1 0-2.135.89-2.3 1.977l-1.791 11.792h-5.13c-1.1 0-2 .9-2 2v4.081c0 1.1.9 2 2 2h3.903l-1.189 7.833h-5.482c-1.1 0-2 .9-2 2v4.081c0 1.1.9 2 2 2h4.255l-1.821 11.992c-.165 1.088.6 1.978 1.7 1.978h8.816c1.1 0 2.135-.89 2.3-1.978l1.821-11.992h7.234l-1.82 11.992c-.166 1.088.6 1.978 1.699 1.978h7.121c1.102 0 2.137-.89 2.301-1.978l1.822-11.992h9.473c1.1 0 2-.9 2-2v-4.081c0-1.1-.9-2-2-2h-8.247l1.19-7.833h9.824c1.101 0 2-.9 2-2v-4.081c0-1.1-.899-2-2-2zm-22.135 15.914h-7.235l1.189-7.833h7.235z" fill="#52b8d9"/><path d="m42.471 58.367h-7.121c-.681 0-1.285-.268-1.704-.755-.418-.487-.592-1.125-.489-1.797l1.732-11.417h-6.222l-1.757 11.566c-.201 1.325-1.455 2.402-2.794 2.402h-8.816c-.68 0-1.285-.268-1.703-.755s-.593-1.125-.491-1.798l1.734-11.417h-3.673c-1.378 0-2.5-1.122-2.5-2.5v-4.081c0-1.378 1.122-2.5 2.5-2.5h5.052l1.038-6.833h-3.321c-1.378 0-2.5-1.122-2.5-2.5v-4.081c0-1.378 1.122-2.5 2.5-2.5h4.701l1.726-11.367c.201-1.325 1.455-2.402 2.794-2.402h8.817c.681 0 1.286.269 1.705.756.418.487.592 1.125.489 1.797l-1.704 11.216h6.223l1.727-11.367c.202-1.325 1.456-2.402 2.795-2.402h7.121c.681 0 1.285.268 1.704.755.418.487.592 1.125.489 1.797l-1.703 11.216h8.016c1.379 0 2.5 1.122 2.5 2.5v4.081c0 1.378-1.121 2.5-2.5 2.5h-9.395l-1.037 6.833h7.664c1.379 0 2.5 1.122 2.5 2.5v4.081c0 1.378-1.121 2.5-2.5 2.5h-9.043l-1.758 11.567c-.201 1.327-1.454 2.405-2.796 2.405zm-14.234-14.97h7.234c.146 0 .284.063.379.174.096.111.138.257.115.401l-1.82 11.992c-.058.379.034.733.26.995.226.263.562.407.945.407h7.121c.853 0 1.68-.711 1.807-1.552l1.822-11.992c.037-.244.247-.425.494-.425h9.473c.827 0 1.5-.673 1.5-1.5v-4.081c0-.827-.673-1.5-1.5-1.5h-8.247c-.146 0-.284-.063-.379-.174-.096-.111-.138-.257-.115-.401l1.189-7.833c.037-.244.247-.425.494-.425h9.824c.827 0 1.5-.673 1.5-1.5v-4.081c0-.827-.673-1.5-1.5-1.5h-8.598c-.146 0-.284-.063-.379-.174-.096-.11-.138-.257-.115-.401l1.791-11.792c.058-.379-.034-.733-.26-.995-.226-.263-.562-.407-.945-.407h-7.121c-.851 0-1.678.711-1.807 1.553l-1.791 11.792c-.037.244-.247.425-.494.425h-7.234c-.146 0-.284-.063-.379-.174-.095-.11-.137-.257-.115-.401l1.791-11.792c.058-.379-.034-.733-.26-.995-.226-.263-.562-.407-.946-.407h-8.817c-.851 0-1.678.711-1.806 1.553l-1.791 11.792c-.037.244-.247.425-.494.425h-5.13c-.827 0-1.5.673-1.5 1.5v4.081c0 .827.673 1.5 1.5 1.5h3.903c.146 0 .284.063.379.174s.137.257.115.401l-1.189 7.833c-.037.244-.247.425-.494.425h-5.482c-.827 0-1.5.673-1.5 1.5v4.081c0 .827.673 1.5 1.5 1.5h4.255c.146 0 .284.063.379.174s.137.257.115.401l-1.821 11.992c-.058.38.035.733.261.996.225.262.561.407.945.407h8.816c.851 0 1.678-.711 1.806-1.553l1.821-11.992c.038-.246.248-.427.495-.427zm8.462-7.081h-7.235c-.146 0-.284-.063-.379-.174s-.137-.257-.115-.401l1.189-7.833c.037-.244.247-.425.494-.425h7.235c.146 0 .284.063.379.174.096.111.138.257.115.401l-1.189 7.833c-.037.245-.247.425-.494.425zm-6.653-1h6.224l1.037-6.833h-6.223z" fill="#63312d"/><path d="m52.834 19.902h-8.598l1.791-11.792c.166-1.088-.6-1.977-1.699-1.977h-4.08c-1.102 0-2.137.89-2.301 1.977l-1.791 11.792h-10.275l1.791-11.792c.165-1.088-.6-1.977-1.7-1.977h-4.082c-1.1 0-2.135.89-2.3 1.977l-1.79 11.792h-9.866c-1.1 0-2 .9-2 2v4.081c0 1.1.9 2 2 2h8.638l-1.19 7.833h-10.217c-1.1 0-2 .9-2 2v4.081c0 1.1.9 2 2 2h8.99l-1.821 11.992c-.165 1.088.6 1.978 1.7 1.978h4.081c1.1 0 2.135-.89 2.3-1.978l1.821-11.992h10.275l-1.821 11.992c-.165 1.088.6 1.978 1.7 1.978h4.081c1.102 0 2.137-.89 2.301-1.978l1.822-11.992h9.473c1.1 0 2-.9 2-2v-4.081c0-1.1-.9-2-2-2h-8.247l1.19-7.833h9.824c1.101 0 2-.9 2-2v-4.081c0-1.1-.899-2-2-2zm-19.096 15.914h-10.274l1.189-7.833h10.277z" fill="#84dbff"/><g fill="#caf4ff"><path d="m16.468 43.897h-2.304l-1.83 11.992c-.165 1.088.6 1.978 1.7 1.978h.304z"/><path d="m7.934 27.983v-4.081c0-1.1.9-2 2-2h9.866l1.791-11.792c.165-1.088 1.2-1.977 2.3-1.977h3.778l.003-.023c.165-1.088-.6-1.977-1.7-1.977h-4.082c-1.1 0-2.135.89-2.3 1.977l-1.79 11.792h-9.866c-1.1 0-2 .9-2 2v4.081c0 1.1.9 2 2 2z"/><path d="m7.165 37.816h10.217l1.486-9.833h-2.304l-1.183 7.833h-10.216c-1.1 0-2 .9-2 2v4.081c0 1.1.9 2 2 2v-4.081c0-1.1.9-2 2-2z"/></g><path d="m36.471 58.367h-4.081c-.68 0-1.285-.268-1.703-.755s-.593-1.125-.491-1.798l1.734-11.417h-9.264l-1.756 11.567c-.201 1.325-1.455 2.402-2.794 2.402h-4.081c-.68 0-1.285-.268-1.703-.755s-.593-1.125-.491-1.798l1.734-11.417h-8.409c-1.378 0-2.5-1.122-2.5-2.5v-4.081c0-1.378 1.122-2.5 2.5-2.5h9.788l1.038-6.833h-8.058c-1.378 0-2.5-1.122-2.5-2.5v-4.081c0-1.378 1.122-2.5 2.5-2.5h9.436l1.726-11.367c.201-1.325 1.455-2.402 2.794-2.402h4.082c.68 0 1.285.268 1.703.755s.593 1.125.491 1.798l-1.704 11.216h9.264l1.727-11.367c.199-1.324 1.453-2.402 2.795-2.402h4.08c.681 0 1.285.268 1.704.755.418.487.592 1.125.489 1.797l-1.703 11.216h8.016c1.379 0 2.5 1.122 2.5 2.5v4.081c0 1.378-1.121 2.5-2.5 2.5h-9.395l-1.037 6.833h7.664c1.379 0 2.5 1.122 2.5 2.5v4.081c0 1.378-1.121 2.5-2.5 2.5h-9.043l-1.758 11.567c-.199 1.327-1.452 2.405-2.794 2.405zm-14.234-14.97h10.275c.146 0 .284.063.379.174s.137.257.115.401l-1.821 11.992c-.058.38.035.733.261.996.225.262.561.407.945.407h4.081c.853 0 1.68-.711 1.807-1.552l1.821-11.993c.037-.244.247-.425.494-.425h9.473c.827 0 1.5-.673 1.5-1.5v-4.081c0-.827-.673-1.5-1.5-1.5h-8.247c-.146 0-.284-.063-.379-.174-.096-.111-.138-.257-.115-.401l1.189-7.833c.037-.244.247-.425.494-.425h9.824c.827 0 1.5-.673 1.5-1.5v-4.081c0-.827-.673-1.5-1.5-1.5h-8.598c-.146 0-.284-.063-.379-.174-.096-.11-.138-.257-.115-.401l1.791-11.792c.058-.379-.034-.733-.26-.995-.226-.263-.562-.407-.945-.407h-4.08c-.853 0-1.68.711-1.807 1.552l-1.79 11.793c-.037.244-.247.425-.494.425h-10.275c-.146 0-.284-.063-.379-.174-.095-.11-.137-.257-.115-.401l1.791-11.792c.058-.38-.035-.733-.261-.996-.225-.262-.561-.407-.945-.407h-4.082c-.851 0-1.678.711-1.806 1.553l-1.791 11.792c-.037.244-.247.425-.494.425h-9.865c-.827 0-1.5.673-1.5 1.5v4.081c0 .827.673 1.5 1.5 1.5h8.638c.146 0 .284.063.379.174s.137.257.115.401l-1.189 7.833c-.037.244-.247.425-.494.425h-10.217c-.827 0-1.5.673-1.5 1.5v4.081c0 .827.673 1.5 1.5 1.5h8.99c.146 0 .284.063.379.174s.137.257.115.401l-1.821 11.992c-.058.38.035.733.261.996.225.262.561.407.945.407h4.081c.851 0 1.678-.711 1.806-1.553l1.821-11.992c.037-.245.247-.426.494-.426zm11.501-7.081h-10.274c-.146 0-.284-.063-.379-.174s-.137-.257-.115-.401l1.189-7.833c.037-.244.247-.425.494-.425h10.277c.146 0 .284.063.379.174.096.11.138.257.115.401l-1.191 7.833c-.038.245-.248.425-.495.425zm-9.692-1h9.263l1.039-6.833h-9.264z" fill="#63312d"/></svg>